<?xml version="1.0" encoding="UTF-8" standalone="no"?>
<!-- Created with Inkscape (http://www.inkscape.org/) -->

<svg
   xmlns:dc="http://purl.org/dc/elements/1.1/"
   xmlns:cc="http://creativecommons.org/ns#"
   xmlns:rdf="http://www.w3.org/1999/02/22-rdf-syntax-ns#"
   xmlns:svg="http://www.w3.org/2000/svg"
   xmlns="http://www.w3.org/2000/svg"
   xmlns:sodipodi="http://sodipodi.sourceforge.net/DTD/sodipodi-0.dtd"
   xmlns:inkscape="http://www.inkscape.org/namespaces/inkscape"
   width="45"
   height="45"
   viewBox="0 0 45 44.999999"
   id="svg4203"
   version="1.1"
   inkscape:version="0.91 r13725"
   sodipodi:docname="Logo-nf.svg">
  <defs
     id="defs4205" />
  <sodipodi:namedview
     id="base"
     pagecolor="#ffffff"
     bordercolor="#666666"
     borderopacity="1.0"
     inkscape:pageopacity="0.0"
     inkscape:pageshadow="2"
     inkscape:zoom="2.8"
     inkscape:cx="21.357902"
     inkscape:cy="22.631339"
     inkscape:document-units="px"
     inkscape:current-layer="layer1"
     showgrid="false"
     inkscape:window-width="1878"
     inkscape:window-height="1051"
     inkscape:window-x="42"
     inkscape:window-y="0"
     inkscape:window-maximized="1"
     units="px"
     showguides="true"
     inkscape:guide-bbox="true">
    <sodipodi:guide
       position="48.234784,41.409999"
       orientation="0,1"
       id="guide4763"
       inkscape:label=""
       inkscape:color="rgb(0,0,255)" />
  </sodipodi:namedview>
  <metadata
     id="metadata4208">
    <rdf:RDF>
      <cc:Work
         rdf:about="">
        <dc:format>image/svg+xml</dc:format>
        <dc:type
           rdf:resource="http://purl.org/dc/dcmitype/StillImage" />
        <dc:title />
      </cc:Work>
    </rdf:RDF>
  </metadata>
  <g
     inkscape:label="Ebene 1"
     inkscape:groupmode="layer"
     id="layer1"
     transform="translate(0,-1007.3622)">
    <g
       id="text3755-2-4"
       style="font-style:normal;font-variant:normal;font-weight:normal;font-stretch:normal;font-size:48.59805679px;line-height:100%;font-family:Colaborate-Bold;-inkscape-font-specification:Colaborate-Bold;text-align:start;letter-spacing:0px;word-spacing:0px;writing-mode:lr-tb;text-anchor:start;display:inline;opacity:1;fill:#f3d577;fill-opacity:1;stroke:none"
       transform="matrix(0.99101968,0,0,1.0090617,-9.50053,-3.0953447)">
      <path
         inkscape:connector-curvature="0"
         id="path4143"
         style="fill:#ffd96b;fill-opacity:1"
         d="m 11.923254,1015.3778 6.193405,0 0.97291,2.7289 0.640697,-0.6882 q 0.569509,-0.5932 0.972911,-0.9491 0.427131,-0.356 1.091558,-0.8306 0.688156,-0.4983 1.4475,-0.7356 0.783074,-0.261 1.613608,-0.261 4.722174,0 6.4307,2.3255 1.732255,2.3017 1.732255,6.6205 l 0,14.0004 -6.644266,0 0,-14.4275 q 0,-0.7831 -0.04746,-1.2102 -0.04746,-0.4509 -0.308484,-1.0441 -0.237295,-0.617 -0.830533,-0.9018 -0.569509,-0.3084 -1.542419,-0.3084 -1.305123,0 -2.325493,1.1864 -1.020369,1.1628 -2.088198,3.251 l 0,13.4546 -6.667995,0 0,-17.4886 q 0,-0.9255 -0.640697,-4.7222 z" />
    </g>
    <g
       id="text3755-2-4-4"
       style="font-style:normal;font-variant:normal;font-weight:normal;font-stretch:normal;font-size:48.59805679px;line-height:100%;font-family:Colaborate-Bold;-inkscape-font-specification:Colaborate-Bold;text-align:start;letter-spacing:0px;word-spacing:0px;writing-mode:lr-tb;text-anchor:start;display:inline;opacity:1;fill:#f3d577;fill-opacity:1;stroke:none"
       transform="matrix(0.99101968,0,0,1.0090617,-9.50053,-3.0953447)">
      <path
         inkscape:connector-curvature="0"
         id="path4146"
         style="font-style:normal;font-variant:normal;font-weight:normal;font-stretch:normal;font-size:48.59805679px;line-height:100%;font-family:Colaborate-Bold;-inkscape-font-specification:Colaborate-Bold;text-align:start;writing-mode:lr-tb;text-anchor:start;fill:#d6174a;fill-opacity:1"
         d="m 36.260666,1020.4796 0,-5.1018 3.369591,0 0,-0.5221 q 0,-4.3187 2.657707,-6.4307 2.681435,-2.1356 8.020577,-3.156 l 2.349223,5.3866 q -3.298403,0.3797 -4.840822,1.3763 -1.542419,0.9729 -1.542419,3.0611 l 0,0.2848 4.081477,0 0,5.1018 -4.081477,0 0,17.109 -6.644266,0 0,-17.109 -3.369591,0 z" />
    </g>
  </g>
</svg>
