<?xml version="1.0" encoding="UTF-8" standalone="no"?>
<!-- Created with Inkscape (http://www.inkscape.org/) -->

<svg
   xmlns:dc="http://purl.org/dc/elements/1.1/"
   xmlns:cc="http://creativecommons.org/ns#"
   xmlns:rdf="http://www.w3.org/1999/02/22-rdf-syntax-ns#"
   xmlns:svg="http://www.w3.org/2000/svg"
   xmlns="http://www.w3.org/2000/svg"
   xmlns:sodipodi="http://sodipodi.sourceforge.net/DTD/sodipodi-0.dtd"
   xmlns:inkscape="http://www.inkscape.org/namespaces/inkscape"
   width="210"
   height="45"
   viewBox="0 0 210 44.999999"
   id="svg4203"
   version="1.1"
   inkscape:version="0.91 r13725"
   sodipodi:docname="Logo-klein.svg">
  <defs
     id="defs4205" />
  <sodipodi:namedview
     id="base"
     pagecolor="#ffffff"
     bordercolor="#666666"
     borderopacity="1.0"
     inkscape:pageopacity="0.0"
     inkscape:pageshadow="2"
     inkscape:zoom="1.979899"
     inkscape:cx="142.97133"
     inkscape:cy="104.89647"
     inkscape:document-units="px"
     inkscape:current-layer="layer1"
     showgrid="false"
     inkscape:window-width="1878"
     inkscape:window-height="1051"
     inkscape:window-x="42"
     inkscape:window-y="0"
     inkscape:window-maximized="1"
     units="px" />
  <metadata
     id="metadata4208">
    <rdf:RDF>
      <cc:Work
         rdf:about="">
        <dc:format>image/svg+xml</dc:format>
        <dc:type
           rdf:resource="http://purl.org/dc/dcmitype/StillImage" />
        <dc:title />
      </cc:Work>
    </rdf:RDF>
  </metadata>
  <g
     inkscape:label="Ebene 1"
     inkscape:groupmode="layer"
     id="layer1"
     transform="translate(0,-1007.3622)">
    <g
       transform="scale(0.99101968,1.0090617)"
       style="font-style:normal;font-variant:normal;font-weight:normal;font-stretch:normal;font-size:48.59805679px;line-height:100%;font-family:Colaborate-Bold;-inkscape-font-specification:Colaborate-Bold;text-align:start;letter-spacing:0px;word-spacing:0px;writing-mode:lr-tb;text-anchor:start;display:inline;opacity:1;fill:#f3d577;fill-opacity:1;stroke:none"
       id="text3755-2-4">
      <path
         d="m 11.923254,1011.8931 6.193405,0 0.97291,2.7288 0.640697,-0.6881 q 0.569509,-0.5932 0.972911,-0.9492 0.427131,-0.3559 1.091558,-0.8305 0.688156,-0.4983 1.4475,-0.7356 0.783074,-0.2611 1.613608,-0.2611 4.722174,0 6.4307,2.3255 1.732255,2.3018 1.732255,6.6206 l 0,14.0004 -6.644266,0 0,-14.4276 q 0,-0.783 -0.04746,-1.2102 -0.04746,-0.4508 -0.308484,-1.0441 -0.237295,-0.6169 -0.830533,-0.9017 -0.569509,-0.3085 -1.542419,-0.3085 -1.305123,0 -2.325493,1.1865 -1.020369,1.1627 -2.088198,3.2509 l 0,13.4547 -6.667995,0 0,-17.4887 q 0,-0.9254 -0.640697,-4.7221 z"
         style="fill:#ffd96b;fill-opacity:1"
         id="path4138" />
      <path
         d="m 38.120644,1023.212 q 0,-1.661 0.308484,-3.2272 0.332213,-1.5899 1.091558,-3.2035 0.783074,-1.6373 1.993279,-2.8475 1.233935,-1.2102 3.179756,-1.9696 1.96955,-0.7593 4.46115,-0.7593 6.217134,0 8.685004,3.417 2.491599,3.3934 2.491599,11.2241 l -15.258081,0 q 0.783074,4.034 4.817093,4.034 3.061108,0 6.834101,-1.8983 l 2.206846,5.0544 q -3.939101,1.7559 -9.444349,1.7559 -5.339142,0 -8.352791,-3.3221 -3.013649,-3.3459 -3.013649,-8.2579 z m 7.000208,-2.278 8.542627,0 q -0.427131,-4.6273 -4.461149,-4.6273 -0.545779,0 -1.067829,0.1424 -0.49832,0.1187 -1.257664,0.5221 -0.735615,0.4034 -1.233935,1.4475 -0.474591,1.0203 -0.52205,2.5153 z"
         style="fill:#ffd96b;fill-opacity:1"
         id="path4140" />
      <path
         d="m 64.412951,1022.8798 q 0,-5.0544 2.871272,-8.3765 2.871272,-3.3459 8.685004,-3.3459 5.93238,0 8.732463,3.251 2.800084,3.2272 2.800084,8.4714 0,5.1968 -2.847543,8.5901 -2.847542,3.3696 -8.685004,3.3696 -5.884921,0 -8.732463,-3.3459 -2.823813,-3.3696 -2.823813,-8.6138 z m 6.810372,0 q 0,6.9053 4.745904,6.9053 4.722174,0 4.722174,-6.9053 0,-3.8916 -1.115287,-5.2679 -1.115287,-1.4001 -3.606887,-1.4001 -2.372952,0 -3.559428,1.4238 -1.186476,1.4 -1.186476,5.2442 z"
         style="fill:#ffd96b;fill-opacity:1"
         id="path4142" />
      <path
         d="m 91.9392,1011.8931 6.193404,0 0.972911,2.7288 0.640697,-0.6881 q 0.569508,-0.5932 0.972908,-0.9492 0.42713,-0.3559 1.09156,-0.8305 0.68816,-0.4983 1.4475,-0.7356 0.78307,-0.2611 1.61361,-0.2611 4.72217,0 6.4307,2.3255 1.73225,2.3018 1.73225,6.6206 l 0,14.0004 -6.64426,0 0,-14.4276 q 0,-0.783 -0.0475,-1.2102 -0.0475,-0.4508 -0.30849,-1.0441 -0.23729,-0.6169 -0.83053,-0.9017 -0.56951,-0.3085 -1.54242,-0.3085 -1.30512,0 -2.32549,1.1865 -1.02037,1.1627 -2.088198,3.2509 l 0,13.4547 -6.667995,0 0,-17.4887 q 0,-0.9254 -0.640697,-4.7221 z"
         style="fill:#ffd96b;fill-opacity:1"
         id="path4144" />
      <path
         d="m 116.57044,1016.9949 0,-5.1018 3.36959,0 0,-0.5221 q 0,-4.3188 2.6577,-6.4307 2.68144,-2.1357 8.02058,-3.156 l 2.34922,5.3866 q -3.2984,0.3796 -4.84082,1.3763 -1.54242,0.9729 -1.54242,3.0611 l 0,0.2848 4.08148,0 0,5.1018 -4.08148,0 0,17.109 -6.64426,0 0,-17.109 -3.36959,0 z"
         style="font-style:normal;font-variant:normal;font-weight:normal;font-stretch:normal;font-size:48.59805679px;line-height:100%;font-family:Colaborate-Bold;-inkscape-font-specification:Colaborate-Bold;text-align:start;writing-mode:lr-tb;text-anchor:start;fill:#d6174a;fill-opacity:1"
         id="path4146" />
      <path
         d="m 134.36758,1022.8798 q 0,-5.0544 2.87127,-8.3765 2.87127,-3.3459 8.685,-3.3459 5.93238,0 8.73247,3.251 2.80008,3.2272 2.80008,8.4714 0,5.1968 -2.84754,8.5901 -2.84754,3.3696 -8.68501,3.3696 -5.88492,0 -8.73246,-3.3459 -2.82381,-3.3696 -2.82381,-8.6138 z m 6.81037,0 q 0,6.9053 4.7459,6.9053 4.72218,0 4.72218,-6.9053 0,-3.8916 -1.11529,-5.2679 -1.11529,-1.4001 -3.60689,-1.4001 -2.37295,0 -3.55942,1.4238 -1.18648,1.4 -1.18648,5.2442 z"
         style="font-style:normal;font-variant:normal;font-weight:normal;font-stretch:normal;font-size:48.59805679px;line-height:100%;font-family:Colaborate-Bold;-inkscape-font-specification:Colaborate-Bold;text-align:start;writing-mode:lr-tb;text-anchor:start;fill:#d6174a;fill-opacity:1"
         id="path4148" />
      <path
         d="m 159.97173,1016.9949 0,-5.1493 3.34586,0 0,-6.0748 6.59681,0 0,6.0748 4.29504,0 0,5.1493 -4.29504,0 0,12.197 q 0,2.0882 0.99664,3.0848 0.99664,0.9966 3.63061,1.7797 l -2.4916,5.3866 q -4.03401,-1.5661 -6.38324,-4.034 -2.34922,-2.4679 -2.34922,-6.9053 l 0,-11.5088 -3.34586,0 z"
         style="font-style:normal;font-variant:normal;font-weight:normal;font-stretch:normal;font-size:48.59805679px;line-height:100%;font-family:Colaborate-Bold;-inkscape-font-specification:Colaborate-Bold;text-align:start;writing-mode:lr-tb;text-anchor:start;fill:#d6174a;fill-opacity:1"
         id="path4150" />
      <path
         d="m 176.89088,1022.8798 q 0,-5.0544 2.87127,-8.3765 2.87127,-3.3459 8.68501,-3.3459 5.93238,0 8.73246,3.251 2.80008,3.2272 2.80008,8.4714 0,5.1968 -2.84754,8.5901 -2.84754,3.3696 -8.685,3.3696 -5.88493,0 -8.73247,-3.3459 -2.82381,-3.3696 -2.82381,-8.6138 z m 6.81037,0 q 0,6.9053 4.74591,6.9053 4.72217,0 4.72217,-6.9053 0,-3.8916 -1.11529,-5.2679 -1.11529,-1.4001 -3.60688,-1.4001 -2.37296,0 -3.55943,1.4238 -1.18648,1.4 -1.18648,5.2442 z"
         style="font-style:normal;font-variant:normal;font-weight:normal;font-stretch:normal;font-size:48.59805679px;line-height:100%;font-family:Colaborate-Bold;-inkscape-font-specification:Colaborate-Bold;text-align:start;writing-mode:lr-tb;text-anchor:start;fill:#d6174a;fill-opacity:1"
         id="path4152" />
    </g>
  </g>
</svg>
