<?xml version="1.0" encoding="UTF-8" standalone="no"?>
<!-- Created with Inkscape (http://www.inkscape.org/) -->

<svg
   xmlns:dc="http://purl.org/dc/elements/1.1/"
   xmlns:cc="http://creativecommons.org/ns#"
   xmlns:rdf="http://www.w3.org/1999/02/22-rdf-syntax-ns#"
   xmlns:svg="http://www.w3.org/2000/svg"
   xmlns="http://www.w3.org/2000/svg"
   xmlns:sodipodi="http://sodipodi.sourceforge.net/DTD/sodipodi-0.dtd"
   xmlns:inkscape="http://www.inkscape.org/namespaces/inkscape"
   width="380"
   height="106"
   viewBox="0 0 380.00001 106"
   id="svg4203"
   version="1.1"
   inkscape:version="0.91 r13725"
   sodipodi:docname="Logo.svg"
   inkscape:export-filename="/media/daniel/Daten/sonstiges/xampp-htdocs/wp-content/themes/owneon/img/Logo.png"
   inkscape:export-xdpi="90"
   inkscape:export-ydpi="90">
  <defs
     id="defs4205" />
  <sodipodi:namedview
     id="base"
     pagecolor="#ffffff"
     bordercolor="#666666"
     borderopacity="1.0"
     inkscape:pageopacity="0.0"
     inkscape:pageshadow="2"
     inkscape:zoom="0.98994949"
     inkscape:cx="-11.857489"
     inkscape:cy="130.55103"
     inkscape:document-units="px"
     inkscape:current-layer="layer1"
     showgrid="false"
     inkscape:window-width="1878"
     inkscape:window-height="1051"
     inkscape:window-x="42"
     inkscape:window-y="0"
     inkscape:window-maximized="1"
     units="px" />
  <metadata
     id="metadata4208">
    <rdf:RDF>
      <cc:Work
         rdf:about="">
        <dc:format>image/svg+xml</dc:format>
        <dc:type
           rdf:resource="http://purl.org/dc/dcmitype/StillImage" />
        <dc:title />
      </cc:Work>
    </rdf:RDF>
  </metadata>
  <g
     inkscape:label="Ebene 1"
     inkscape:groupmode="layer"
     id="layer1"
     transform="translate(0,-946.36219)">
    <g
       transform="scale(0.99101968,1.0090617)"
       style="font-style:normal;font-variant:normal;font-weight:normal;font-stretch:normal;font-size:94.8404007px;line-height:100%;font-family:Colaborate-Bold;-inkscape-font-specification:Colaborate-Bold;text-align:start;letter-spacing:0px;word-spacing:0px;writing-mode:lr-tb;text-anchor:start;display:inline;opacity:1;fill:#f3d577;fill-opacity:1;stroke:none"
       id="text3755-2">
      <path
         d="m 8.2231404,960.56415 12.0865936,0 1.898661,5.32551 1.250337,-1.34295 q 1.111411,-1.15772 1.89866,-1.85235 0.833559,-0.69463 2.130205,-1.62081 1.342955,-0.97249 2.824836,-1.43557 1.52819,-0.5094 3.148998,-0.5094 9.215449,0 12.549682,4.53826 3.380541,4.49195 3.380541,12.92015 l 0,27.32221 -12.966461,0 0,-28.15576 q 0,-1.52819 -0.09262,-2.36175 -0.09262,-0.87987 -0.602015,-2.03759 -0.463088,-1.20403 -1.620807,-1.75973 -1.111411,-0.60202 -3.010072,-0.60202 -2.546983,0 -4.538261,2.31544 -1.991278,2.26913 -4.075173,6.34431 l 0,26.2571 -13.0127703,0 0,-34.1296 q 0,-1.80604 -1.2503373,-9.21545 z"
         style="fill:#ffd96b;fill-opacity:1"
         id="path4175" />
      <path
         d="m 59.348043,982.65345 q 0,-3.24162 0.602015,-6.298 0.648323,-3.10269 2.130204,-6.25169 1.52819,-3.1953 3.889938,-5.55705 2.408057,-2.36175 6.205378,-3.84363 3.84363,-1.48188 8.706052,-1.48188 12.132903,0 16.949017,6.66846 4.862423,6.62216 4.862423,21.90406 l -29.776551,0 q 1.52819,7.8725 9.400684,7.8725 5.973834,0 13.336931,-3.70471 l 4.306718,9.86379 q -7.687259,3.4268 -18.430898,3.4268 -10.419478,0 -16.300694,-6.4832 -5.881217,-6.52954 -5.881217,-16.11545 z m 13.661093,-4.44565 16.671164,0 q -0.833558,-9.03021 -8.706052,-9.03021 -1.065102,0 -2.083895,0.27785 -0.972485,0.23154 -2.454366,1.01879 -1.435573,0.78725 -2.408057,2.82484 -0.926176,1.99128 -1.018794,4.90873 z"
         style="fill:#ffd96b;fill-opacity:1"
         id="path4177" />
      <path
         d="m 110.65819,982.00512 q 0,-9.86377 5.60336,-16.347 5.60336,-6.52954 16.94902,-6.52954 11.57719,0 17.04163,6.3443 5.46444,6.298 5.46444,16.53224 0,10.14163 -5.55706,16.76378 -5.55705,6.5759 -16.94901,6.5759 -11.48458,0 -17.04164,-6.52959 -5.51074,-6.57585 -5.51074,-16.81009 z m 13.29062,0 q 0,13.47586 9.26176,13.47586 9.21545,0 9.21545,-13.47586 0,-7.59464 -2.17652,-10.28055 -2.17651,-2.73222 -7.03893,-2.73222 -4.63088,0 -6.94632,2.77853 -2.31544,2.73222 -2.31544,10.23424 z"
         style="fill:#ffd96b;fill-opacity:1"
         id="path4179" />
      <path
         d="m 164.37637,960.56415 12.08659,0 1.89866,5.32551 1.25034,-1.34295 q 1.11141,-1.15772 1.89866,-1.85235 0.83356,-0.69463 2.13021,-1.62081 1.34295,-0.97249 2.82483,-1.43557 1.52819,-0.5094 3.149,-0.5094 9.21545,0 12.54968,4.53826 3.38054,4.49195 3.38054,12.92015 l 0,27.32221 -12.96646,0 0,-28.15576 q 0,-1.52819 -0.0926,-2.36175 -0.0926,-0.87987 -0.60201,-2.03759 -0.46309,-1.20403 -1.62081,-1.75973 -1.11141,-0.60202 -3.01007,-0.60202 -2.54698,0 -4.53826,2.31544 -1.99128,2.26913 -4.07517,6.34431 l 0,26.2571 -13.01277,0 0,-34.1296 q 0,-1.80604 -1.25034,-9.21545 z"
         style="fill:#ffd96b;fill-opacity:1"
         id="path4181" />
      <path
         d="m 212.4449,970.52054 0,-9.95639 6.57585,0 0,-1.01879 q 0,-8.4282 5.18658,-12.54968 5.2329,-4.16779 15.65237,-6.15907 l 4.58457,10.51209 q -6.43692,0.74094 -9.44699,2.68591 -3.01007,1.89866 -3.01007,5.97384 l 0,0.5557 7.96511,0 0,9.95639 -7.96511,0 0,33.38866 -12.96646,0 0,-33.38866 -6.57585,0 z"
         style="font-style:normal;font-variant:normal;font-weight:normal;font-stretch:normal;font-size:94.8404007px;line-height:100%;font-family:Colaborate-Bold;-inkscape-font-specification:Colaborate-Bold;text-align:start;writing-mode:lr-tb;text-anchor:start;fill:#d6174a;fill-opacity:1"
         id="path4183" />
      <path
         d="m 247.1765,982.00512 q 0,-9.86377 5.60336,-16.347 5.60336,-6.52954 16.94902,-6.52954 11.57719,0 17.04163,6.3443 5.46444,6.298 5.46444,16.53224 0,10.14163 -5.55706,16.76378 -5.55705,6.5759 -16.94901,6.5759 -11.48458,0 -17.04164,-6.52959 -5.51074,-6.57585 -5.51074,-16.81009 z m 13.29062,0 q 0,13.47586 9.26176,13.47586 9.21545,0 9.21545,-13.47586 0,-7.59464 -2.17652,-10.28055 -2.17651,-2.73222 -7.03893,-2.73222 -4.63088,0 -6.94632,2.77853 -2.31544,2.73222 -2.31544,10.23424 z"
         style="font-style:normal;font-variant:normal;font-weight:normal;font-stretch:normal;font-size:94.8404007px;line-height:100%;font-family:Colaborate-Bold;-inkscape-font-specification:Colaborate-Bold;text-align:start;writing-mode:lr-tb;text-anchor:start;fill:#d6174a;fill-opacity:1"
         id="path4185" />
      <path
         d="m 297.14367,970.52054 0,-10.049 6.52954,0 0,-11.85505 12.87384,0 0,11.85505 8.38189,0 0,10.049 -8.38189,0 0,23.80272 q 0,4.07517 1.94497,6.02014 1.94497,1.945 7.08524,3.4732 l -4.86242,10.5121 q -7.87249,-3.0564 -12.45706,-7.8725 -4.58457,-4.8162 -4.58457,-13.47589 l 0,-22.45977 -6.52954,0 z"
         style="font-style:normal;font-variant:normal;font-weight:normal;font-stretch:normal;font-size:94.8404007px;line-height:100%;font-family:Colaborate-Bold;-inkscape-font-specification:Colaborate-Bold;text-align:start;writing-mode:lr-tb;text-anchor:start;fill:#d6174a;fill-opacity:1"
         id="path4187" />
      <path
         d="m 330.16183,982.00512 q 0,-9.86377 5.60337,-16.347 5.60336,-6.52954 16.94901,-6.52954 11.5772,0 17.04164,6.3443 5.46443,6.298 5.46443,16.53224 0,10.14163 -5.55705,16.76378 -5.55705,6.5759 -16.94902,6.5759 -11.48458,0 -17.04163,-6.52959 -5.51075,-6.57585 -5.51075,-16.81009 z m 13.29063,0 q 0,13.47586 9.26175,13.47586 9.21545,0 9.21545,-13.47586 0,-7.59464 -2.17651,-10.28055 -2.17651,-2.73222 -7.03894,-2.73222 -4.63088,0 -6.94632,2.77853 -2.31543,2.73222 -2.31543,10.23424 z"
         style="font-style:normal;font-variant:normal;font-weight:normal;font-stretch:normal;font-size:94.8404007px;line-height:100%;font-family:Colaborate-Bold;-inkscape-font-specification:Colaborate-Bold;text-align:start;writing-mode:lr-tb;text-anchor:start;fill:#d6174a;fill-opacity:1"
         id="path4189" />
    </g>
    <g
       transform="scale(0.99101968,1.0090617)"
       style="font-style:normal;font-variant:normal;font-weight:normal;font-stretch:normal;font-size:38.25674438px;line-height:125%;font-family:Colaborate-Medium;-inkscape-font-specification:Colaborate-Medium;text-align:start;letter-spacing:0px;word-spacing:0px;writing-mode:lr-tb;text-anchor:start;display:inline;fill:#ffdc6b;fill-opacity:1;stroke:none"
       id="text3798-76">
      <path
         d="m 9.1206958,1036.2212 0,-25.1434 4.3337722,0 0,25.1434 -4.3337722,0 z"
         style=""
         id="path4151" />
      <path
         d="m 18.386001,1015.2248 0,-3.7547 4.557933,0 0,3.7547 -4.557933,0 z m 0.112081,20.9964 0,-17.4845 4.333772,0 0,17.4845 -4.333772,0 z"
         style=""
         id="path4153" />
      <path
         d="m 26.997506,1027.6097 q 0,-4.3525 2.222926,-6.8556 2.222926,-2.5218 6.538017,-2.5218 1.102123,0 2.970129,0.411 1.886685,0.3922 2.914088,0.8219 l -1.475725,3.5492 q -2.914087,-1.457 -4.445852,-1.4384 -2.222926,0 -3.250329,1.3824 -1.027402,1.3636 -1.027402,4.6513 0,5.7721 4.240371,5.7721 1.793285,0 4.632653,-1.4383 l 1.494404,3.5492 q -0.952683,0.467 -3.007488,0.8406 -2.054806,0.3923 -3.156929,0.3923 -4.165651,0 -6.407257,-2.4845 -2.241606,-2.5031 -2.241606,-6.6314 z"
         style=""
         id="path4155" />
      <path
         d="m 45.658877,1036.2212 0,-25.1434 4.333772,0 0,9.9565 q 2.148206,-2.8394 4.539252,-2.8394 3.60525,0 4.950214,1.8307 1.363643,1.812 1.363643,5.1744 l 0,11.0212 -4.315091,0 0,-11.208 q 0,-0.8033 -0.07472,-1.289 -0.07472,-0.5043 -0.336241,-1.0647 -0.242841,-0.5604 -0.821923,-0.8406 -0.560401,-0.2802 -1.494404,-0.2802 -2.148206,0 -3.81073,3.2877 l 0,11.3948 -4.333772,0 z"
         style=""
         id="path4157" />
      <path
         d="m 63.890608,1022.0617 0,-3.3624 2.895407,0 0,-4.67 4.333772,0 0,4.67 4.090931,0 0,3.3624 -4.090931,0 0,9.9191 q 0,1.7559 1.176844,2.7086 1.195523,0.9527 3.567889,1.5318 l -1.158163,3.7173 q -3.437129,-0.8779 -5.678735,-3.0075 -2.241607,-2.1295 -2.241607,-5.3051 l 0,-9.5642 -2.895407,0 z"
         style=""
         id="path4159" />
    </g>
    <g
       transform="scale(0.99101968,1.0090617)"
       style="font-style:normal;font-variant:normal;font-weight:normal;font-stretch:normal;font-size:38.47324753px;line-height:125%;font-family:Colaborate-Medium;-inkscape-font-specification:Colaborate-Medium;text-align:start;letter-spacing:0px;word-spacing:0px;writing-mode:lr-tb;text-anchor:start;display:inline;fill:#d6174a;fill-opacity:1;stroke:none"
       id="text3802-9">
      <path
         d="m 216.5633,1033.7068 q 0,-2.1979 2.83665,-3.3438 -2.23551,-0.9957 -2.21672,-3.2688 0,-1.578 2.02886,-3.0808 -1.76586,-2.2355 -1.76586,-4.4898 0,-0.9581 0.30057,-1.935 0.31936,-0.9956 1.07079,-2.1228 0.75143,-1.1459 2.46093,-1.8785 1.70951,-0.7327 4.13287,-0.7327 1.23986,0 2.96815,0.3569 4.73402,-0.3757 6.61259,-0.4696 l -1.12714,2.9306 -2.14158,0 q 1.76586,1.7658 1.76586,3.8886 0,1.2399 -0.41329,2.3483 -0.3945,1.1083 -1.25864,2.1415 -0.86415,1.0145 -2.49851,1.6344 -1.63436,0.6011 -3.83229,0.6011 -0.65751,0 -1.95372,-0.1878 -1.27744,-0.1879 -1.89737,-0.4697 -0.80778,0.4321 -0.80778,1.2775 0,0.695 1.01443,1.0144 1.03321,0.3006 4.26437,0.5636 4.99701,0.3757 6.80044,1.5968 1.80344,1.2023 1.80344,3.5129 0,1.3902 -0.77022,2.4046 -0.75143,1.0332 -2.08522,1.578 -1.33379,0.5636 -2.85544,0.8266 -1.52164,0.2817 -3.28751,0.2817 -4.95944,0 -7.06344,-1.2962 -2.08522,-1.2962 -2.08522,-3.682 z m 4.45222,-0.1503 q 0,0.883 1.39015,1.409 1.39015,0.526 3.30629,0.526 2.57365,0 3.55051,-0.4133 0.99565,-0.3945 0.99565,-1.4841 0,-1.578 -7.96516,-1.7659 -1.27744,0.62 -1.27744,1.7283 z m 0.88293,-13.9578 q 0,3.419 3.62566,3.419 1.841,0 2.66758,-1.052 0.82657,-1.0708 0.82657,-2.5173 0,-1.578 -0.88293,-2.4421 -0.88293,-0.8642 -2.64879,-0.8642 -3.58809,0 -3.58809,3.4566 z"
         style="font-style:normal;font-variant:normal;font-weight:normal;font-stretch:normal;font-size:38.47324753px;line-height:125%;font-family:Colaborate-Medium;-inkscape-font-specification:Colaborate-Medium;text-align:start;writing-mode:lr-tb;text-anchor:start;fill:#d6174a;fill-opacity:1"
         id="path4162" />
      <path
         d="m 238.14814,1013.3618 4.00137,0 0.67629,3.0058 q 0.6575,-1.146 1.89736,-2.3483 1.25865,-1.2023 2.49851,-1.2023 1.72829,0 3.34386,0.8454 l -1.50286,3.5881 q -1.42772,-1.0708 -2.53608,-1.0708 -0.58236,0 -1.12714,0.3381 -0.526,0.3382 -0.90172,0.8642 -0.35693,0.526 -0.71386,1.1271 -0.33814,0.5824 -0.50721,1.0896 -0.16908,0.4884 -0.31936,0.8454 l 0,10.5012 -4.3583,0 0,-13.6572 q 0,-0.7703 -0.0751,-1.5029 -0.0752,-0.7326 -0.20665,-1.4841 -0.1315,-0.7514 -0.16907,-0.9393 z"
         style="font-style:normal;font-variant:normal;font-weight:normal;font-stretch:normal;font-size:38.47324753px;line-height:125%;font-family:Colaborate-Medium;-inkscape-font-specification:Colaborate-Medium;text-align:start;writing-mode:lr-tb;text-anchor:start;fill:#d6174a;fill-opacity:1"
         id="path4164" />
      <path
         d="m 252.74468,1026.324 q 0,-6.4247 9.65588,-6.4247 l 1.46529,0 0,-0.8454 q 0,-1.2774 -0.50721,-2.0476 -0.48843,-0.789 -1.99129,-0.789 -3.19358,0 -6.42473,1.5404 l -1.50287,-3.5881 q 3.62566,-1.315 8.15303,-1.315 3.04329,0 4.84672,1.4277 1.80344,1.4278 1.80344,4.1893 l 0,7.0822 q 0,0.8078 0.31936,2.8554 l 0.37571,2.5361 -4.11408,0 -0.6575,-1.7658 q -2.34822,2.273 -4.56494,2.273 -3.34387,0 -5.10973,-1.315 -1.74708,-1.315 -1.74708,-3.8135 z m 4.54616,-0.1878 q 0,1.9537 3.11843,1.9537 2.19794,0 3.49416,-1.8035 l 0,-3.4565 -0.95808,0 q -3.00572,0 -4.33951,0.8265 -1.315,0.8266 -1.315,2.4798 z"
         style="font-style:normal;font-variant:normal;font-weight:normal;font-stretch:normal;font-size:38.47324753px;line-height:125%;font-family:Colaborate-Medium;-inkscape-font-specification:Colaborate-Medium;text-align:start;writing-mode:lr-tb;text-anchor:start;fill:#d6174a;fill-opacity:1"
         id="path4166" />
      <path
         d="m 271.5868,1016.7057 0,-3.3439 2.6488,0 0,-0.5072 q 0,-1.9161 0.82657,-3.4378 0.82657,-1.5216 2.16036,-2.4233 1.35258,-0.9018 2.79908,-1.3902 1.44651,-0.5072 2.9118,-0.6199 l 1.07079,3.5693 q -2.72394,0.263 -4.07652,1.2023 -1.35257,0.9205 -1.35257,2.7615 l 0,0.8453 4.00137,0 0,3.3439 -4.00137,0 0,14.2396 -4.33951,0 0,-14.2396 -2.6488,0 z"
         style="font-style:normal;font-variant:normal;font-weight:normal;font-stretch:normal;font-size:38.47324753px;line-height:125%;font-family:Colaborate-Medium;-inkscape-font-specification:Colaborate-Medium;text-align:start;writing-mode:lr-tb;text-anchor:start;fill:#d6174a;fill-opacity:1"
         id="path4168" />
      <path
         d="m 286.46513,1009.8301 0,-3.7759 4.58373,0 0,3.7759 -4.58373,0 z m 0.11272,21.1152 0,-17.5835 4.35829,0 0,17.5835 -4.35829,0 z"
         style="font-style:normal;font-variant:normal;font-weight:normal;font-stretch:normal;font-size:38.47324753px;line-height:125%;font-family:Colaborate-Medium;-inkscape-font-specification:Colaborate-Medium;text-align:start;writing-mode:lr-tb;text-anchor:start;fill:#d6174a;fill-opacity:1"
         id="path4170" />
      <path
         d="m 295.12537,1022.3226 q 0,-1.6531 0.3945,-3.2123 0.41329,-1.5592 1.315,-3.0057 0.90172,-1.4653 2.61122,-2.3483 1.7283,-0.9017 4.02016,-0.9017 4.50858,0 6.40594,2.6676 1.91615,2.6488 1.91615,8.3033 l -12.07924,0 q 0.263,2.1228 1.33378,3.2687 1.08958,1.1272 2.89301,1.1272 2.49851,0 5.50423,-1.5029 l 1.42772,3.3439 q -3.04329,1.3901 -7.23252,1.3901 -4.07651,0 -6.29323,-2.6112 -2.21672,-2.63 -2.21672,-6.5187 z m 4.58373,-1.6155 7.89002,0 q -0.263,-4.5086 -4.17044,-4.4898 -1.39015,0 -2.49851,1.0144 -1.10836,1.0144 -1.22107,3.4754 z"
         style="font-style:normal;font-variant:normal;font-weight:normal;font-stretch:normal;font-size:38.47324753px;line-height:125%;font-family:Colaborate-Medium;-inkscape-font-specification:Colaborate-Medium;text-align:start;writing-mode:lr-tb;text-anchor:start;fill:#d6174a;fill-opacity:1"
         id="path4172" />
    </g>
  </g>
</svg>
